<mxfile host="65bd71144e">
    <diagram id="nzfhabuq_R2dpTRw1fEi" name="Page-1">
        <mxGraphModel dx="835" dy="647" grid="0" gridSize="10" guides="1" tooltips="1" connect="1" arrows="1" fold="1" page="1" pageScale="1" pageWidth="827" pageHeight="1169" background="#ffffff" math="0" shadow="0">
            <root>
                <mxCell id="0"/>
                <mxCell id="1" parent="0"/>
                <mxCell id="6" value="difficulté" style="swimlane;fontStyle=0;childLayout=stackLayout;horizontal=1;startSize=30;horizontalStack=0;resizeParent=1;resizeParentMax=0;resizeLast=0;collapsible=1;marginBottom=0;fillColor=#1ba1e2;fontColor=#ffffff;strokeColor=#006EAF;rounded=0;" parent="1" vertex="1">
                    <mxGeometry x="40" y="40" width="140" height="90" as="geometry"/>
                </mxCell>
                <mxCell id="7" value="code difficulté" style="text;strokeColor=#3700CC;fillColor=#6a00ff;align=left;verticalAlign=middle;spacingLeft=4;spacingRight=4;overflow=hidden;points=[[0,0.5],[1,0.5]];portConstraint=eastwest;rotatable=0;fontStyle=4;fontColor=#ffffff;rounded=0;" parent="6" vertex="1">
                    <mxGeometry y="30" width="140" height="30" as="geometry"/>
                </mxCell>
                <mxCell id="8" value="nom" style="text;strokeColor=#3700CC;fillColor=#6a00ff;align=left;verticalAlign=middle;spacingLeft=4;spacingRight=4;overflow=hidden;points=[[0,0.5],[1,0.5]];portConstraint=eastwest;rotatable=0;fontColor=#ffffff;rounded=0;" parent="6" vertex="1">
                    <mxGeometry y="60" width="140" height="30" as="geometry"/>
                </mxCell>
                <mxCell id="10" value="membre" style="swimlane;fontStyle=0;childLayout=stackLayout;horizontal=1;startSize=30;horizontalStack=0;resizeParent=1;resizeParentMax=0;resizeLast=0;collapsible=1;marginBottom=0;fillColor=#1ba1e2;fontColor=#ffffff;strokeColor=#006EAF;rounded=0;" parent="1" vertex="1">
                    <mxGeometry x="40" y="250" width="140" height="150" as="geometry"/>
                </mxCell>
                <mxCell id="12" value="prénom" style="text;strokeColor=#3700CC;fillColor=#6a00ff;align=left;verticalAlign=middle;spacingLeft=4;spacingRight=4;overflow=hidden;points=[[0,0.5],[1,0.5]];portConstraint=eastwest;rotatable=0;fontColor=#ffffff;rounded=0;" parent="10" vertex="1">
                    <mxGeometry y="30" width="140" height="30" as="geometry"/>
                </mxCell>
                <mxCell id="13" value="nom" style="text;strokeColor=#3700CC;fillColor=#6a00ff;align=left;verticalAlign=middle;spacingLeft=4;spacingRight=4;overflow=hidden;points=[[0,0.5],[1,0.5]];portConstraint=eastwest;rotatable=0;fontColor=#ffffff;rounded=0;" parent="10" vertex="1">
                    <mxGeometry y="60" width="140" height="30" as="geometry"/>
                </mxCell>
                <mxCell id="14" value="email" style="text;strokeColor=#3700CC;fillColor=#6a00ff;align=left;verticalAlign=middle;spacingLeft=4;spacingRight=4;overflow=hidden;points=[[0,0.5],[1,0.5]];portConstraint=eastwest;rotatable=0;fontStyle=4;fontColor=#ffffff;rounded=0;" parent="10" vertex="1">
                    <mxGeometry y="90" width="140" height="30" as="geometry"/>
                </mxCell>
                <mxCell id="15" value="mot de passe" style="text;strokeColor=#3700CC;fillColor=#6a00ff;align=left;verticalAlign=middle;spacingLeft=4;spacingRight=4;overflow=hidden;points=[[0,0.5],[1,0.5]];portConstraint=eastwest;rotatable=0;fontColor=#ffffff;rounded=0;" parent="10" vertex="1">
                    <mxGeometry y="120" width="140" height="30" as="geometry"/>
                </mxCell>
                <mxCell id="39" style="edgeStyle=none;html=1;exitX=0.5;exitY=0;exitDx=0;exitDy=0;entryX=0.5;entryY=1;entryDx=0;entryDy=0;endArrow=none;endFill=0;rounded=0;fillColor=#0050ef;strokeColor=#001DBC;" parent="1" source="16" target="38" edge="1">
                    <mxGeometry relative="1" as="geometry"/>
                </mxCell>
                <mxCell id="16" value="quiz" style="swimlane;fontStyle=0;childLayout=stackLayout;horizontal=1;startSize=30;horizontalStack=0;resizeParent=1;resizeParentMax=0;resizeLast=0;collapsible=1;marginBottom=0;fillColor=#1ba1e2;fontColor=#ffffff;strokeColor=#006EAF;rounded=0;" parent="1" vertex="1">
                    <mxGeometry x="360" y="265" width="140" height="150" as="geometry"/>
                </mxCell>
                <mxCell id="17" value="code quiz" style="text;strokeColor=#3700CC;fillColor=#6a00ff;align=left;verticalAlign=middle;spacingLeft=4;spacingRight=4;overflow=hidden;points=[[0,0.5],[1,0.5]];portConstraint=eastwest;rotatable=0;fontStyle=4;fontColor=#ffffff;rounded=0;" parent="16" vertex="1">
                    <mxGeometry y="30" width="140" height="30" as="geometry"/>
                </mxCell>
                <mxCell id="8dz9WC2TGvuOoBMQ9lyX-69" value="code quiz" style="text;strokeColor=#3700CC;fillColor=#6a00ff;align=left;verticalAlign=middle;spacingLeft=4;spacingRight=4;overflow=hidden;points=[[0,0.5],[1,0.5]];portConstraint=eastwest;rotatable=0;fontStyle=4;fontColor=#ffffff;rounded=0;" parent="16" vertex="1">
                    <mxGeometry y="60" width="140" height="30" as="geometry"/>
                </mxCell>
                <mxCell id="18" value="titre" style="text;strokeColor=#3700CC;fillColor=#6a00ff;align=left;verticalAlign=middle;spacingLeft=4;spacingRight=4;overflow=hidden;points=[[0,0.5],[1,0.5]];portConstraint=eastwest;rotatable=0;fontColor=#ffffff;rounded=0;" parent="16" vertex="1">
                    <mxGeometry y="90" width="140" height="30" as="geometry"/>
                </mxCell>
                <mxCell id="19" value="description" style="text;strokeColor=#3700CC;fillColor=#6a00ff;align=left;verticalAlign=middle;spacingLeft=4;spacingRight=4;overflow=hidden;points=[[0,0.5],[1,0.5]];portConstraint=eastwest;rotatable=0;fontColor=#ffffff;rounded=0;" parent="16" vertex="1">
                    <mxGeometry y="120" width="140" height="30" as="geometry"/>
                </mxCell>
                <mxCell id="24" style="edgeStyle=orthogonalEdgeStyle;html=1;exitX=1;exitY=0.5;exitDx=0;exitDy=0;endArrow=none;endFill=0;rounded=0;fillColor=#0050ef;strokeColor=#001DBC;curved=1;" parent="1" source="22" edge="1">
                    <mxGeometry relative="1" as="geometry">
                        <mxPoint x="360" y="325" as="targetPoint"/>
                    </mxGeometry>
                </mxCell>
                <mxCell id="22" value="créé" style="ellipse;whiteSpace=wrap;html=1;fillColor=#60a917;fontColor=#ffffff;strokeColor=#2D7600;rounded=0;" parent="1" vertex="1">
                    <mxGeometry x="233" y="320" width="80" height="45" as="geometry"/>
                </mxCell>
                <mxCell id="23" style="edgeStyle=orthogonalEdgeStyle;html=1;exitX=1;exitY=0.5;exitDx=0;exitDy=0;entryX=0;entryY=0.5;entryDx=0;entryDy=0;endArrow=none;endFill=0;rounded=0;fillColor=#0050ef;strokeColor=#001DBC;curved=1;" parent="1" source="13" target="22" edge="1">
                    <mxGeometry relative="1" as="geometry"/>
                </mxCell>
                <mxCell id="25" value="0 : N" style="text;html=1;align=center;verticalAlign=middle;resizable=0;points=[];autosize=1;strokeColor=#001DBC;fillColor=#0050ef;rounded=0;" parent="1" vertex="1">
                    <mxGeometry x="180" y="302.5" width="40" height="20" as="geometry"/>
                </mxCell>
                <mxCell id="26" value="1 : 1" style="text;html=1;align=center;verticalAlign=middle;resizable=0;points=[];autosize=1;strokeColor=#001DBC;fillColor=#0050ef;rounded=0;" parent="1" vertex="1">
                    <mxGeometry x="310" y="300" width="40" height="20" as="geometry"/>
                </mxCell>
                <mxCell id="28" value="question" style="swimlane;fontStyle=0;childLayout=stackLayout;horizontal=1;startSize=30;horizontalStack=0;resizeParent=1;resizeParentMax=0;resizeLast=0;collapsible=1;marginBottom=0;fillColor=#1ba1e2;fontColor=#ffffff;strokeColor=#006EAF;rounded=0;" parent="1" vertex="1">
                    <mxGeometry x="360" y="40" width="140" height="120" as="geometry"/>
                </mxCell>
                <mxCell id="29" value="code question" style="text;strokeColor=#3700CC;fillColor=#6a00ff;align=left;verticalAlign=middle;spacingLeft=4;spacingRight=4;overflow=hidden;points=[[0,0.5],[1,0.5]];portConstraint=eastwest;rotatable=0;fontStyle=4;fontColor=#ffffff;rounded=0;" parent="28" vertex="1">
                    <mxGeometry y="30" width="140" height="30" as="geometry"/>
                </mxCell>
                <mxCell id="30" value="description" style="text;strokeColor=#3700CC;fillColor=#6a00ff;align=left;verticalAlign=middle;spacingLeft=4;spacingRight=4;overflow=hidden;points=[[0,0.5],[1,0.5]];portConstraint=eastwest;rotatable=0;fontColor=#ffffff;rounded=0;" parent="28" vertex="1">
                    <mxGeometry y="60" width="140" height="30" as="geometry"/>
                </mxCell>
                <mxCell id="31" value="contexte" style="text;strokeColor=#3700CC;fillColor=#6a00ff;align=left;verticalAlign=middle;spacingLeft=4;spacingRight=4;overflow=hidden;points=[[0,0.5],[1,0.5]];portConstraint=eastwest;rotatable=0;fontColor=#ffffff;rounded=0;" parent="28" vertex="1">
                    <mxGeometry y="90" width="140" height="30" as="geometry"/>
                </mxCell>
                <mxCell id="35" style="edgeStyle=orthogonalEdgeStyle;html=1;exitX=0;exitY=0.5;exitDx=0;exitDy=0;entryX=1;entryY=0.5;entryDx=0;entryDy=0;endArrow=none;endFill=0;rounded=0;fillColor=#0050ef;strokeColor=#001DBC;curved=1;" parent="1" source="33" target="7" edge="1">
                    <mxGeometry relative="1" as="geometry"/>
                </mxCell>
                <mxCell id="33" value="est assigné à" style="ellipse;whiteSpace=wrap;html=1;fillColor=#60a917;fontColor=#ffffff;strokeColor=#2D7600;rounded=0;" parent="1" vertex="1">
                    <mxGeometry x="230" y="76" width="80" height="45" as="geometry"/>
                </mxCell>
                <mxCell id="34" style="edgeStyle=orthogonalEdgeStyle;html=1;exitX=0;exitY=0.5;exitDx=0;exitDy=0;entryX=1;entryY=0.5;entryDx=0;entryDy=0;endArrow=none;endFill=0;rounded=0;fillColor=#0050ef;strokeColor=#001DBC;curved=1;" parent="1" source="29" target="33" edge="1">
                    <mxGeometry relative="1" as="geometry"/>
                </mxCell>
                <mxCell id="36" value="1 : 1" style="text;html=1;align=center;verticalAlign=middle;resizable=0;points=[];autosize=1;strokeColor=#001DBC;fillColor=#0050ef;rounded=0;" parent="1" vertex="1">
                    <mxGeometry x="320" y="62.5" width="40" height="20" as="geometry"/>
                </mxCell>
                <mxCell id="37" value="0 : N" style="text;html=1;align=center;verticalAlign=middle;resizable=0;points=[];autosize=1;strokeColor=#001DBC;fillColor=#0050ef;rounded=0;" parent="1" vertex="1">
                    <mxGeometry x="180" y="62.5" width="40" height="20" as="geometry"/>
                </mxCell>
                <mxCell id="40" style="edgeStyle=none;html=1;exitX=0.5;exitY=0;exitDx=0;exitDy=0;entryX=0.506;entryY=1.05;entryDx=0;entryDy=0;entryPerimeter=0;endArrow=none;endFill=0;fillColor=#6a00ff;strokeColor=#3700CC;rounded=0;" parent="1" source="38" target="31" edge="1">
                    <mxGeometry relative="1" as="geometry"/>
                </mxCell>
                <mxCell id="38" value="possède" style="ellipse;whiteSpace=wrap;html=1;fillColor=#60a917;fontColor=#ffffff;strokeColor=#2D7600;rounded=0;" parent="1" vertex="1">
                    <mxGeometry x="390" y="190" width="80" height="45" as="geometry"/>
                </mxCell>
                <mxCell id="42" value="0 : N" style="text;html=1;align=center;verticalAlign=middle;resizable=0;points=[];autosize=1;strokeColor=#001DBC;fillColor=#0050ef;rounded=0;fontColor=#ffffff;" parent="1" vertex="1">
                    <mxGeometry x="439" y="238" width="40" height="20" as="geometry"/>
                </mxCell>
                <mxCell id="43" value="1 : 1" style="text;html=1;align=center;verticalAlign=middle;resizable=0;points=[];autosize=1;rounded=0;fillColor=#0050ef;fontColor=#ffffff;strokeColor=#001DBC;" parent="1" vertex="1">
                    <mxGeometry x="448" y="170" width="40" height="20" as="geometry"/>
                </mxCell>
                <mxCell id="44" value="theme" style="swimlane;fontStyle=0;childLayout=stackLayout;horizontal=1;startSize=30;horizontalStack=0;resizeParent=1;resizeParentMax=0;resizeLast=0;collapsible=1;marginBottom=0;fillColor=#1ba1e2;fontColor=#ffffff;strokeColor=#006EAF;rounded=0;" parent="1" vertex="1">
                    <mxGeometry x="670" y="265" width="140" height="90" as="geometry"/>
                </mxCell>
                <mxCell id="45" value="code thème" style="text;strokeColor=#3700CC;fillColor=#6a00ff;align=left;verticalAlign=middle;spacingLeft=4;spacingRight=4;overflow=hidden;points=[[0,0.5],[1,0.5]];portConstraint=eastwest;rotatable=0;fontStyle=4;fontColor=#ffffff;rounded=0;" parent="44" vertex="1">
                    <mxGeometry y="30" width="140" height="30" as="geometry"/>
                </mxCell>
                <mxCell id="46" value="nom" style="text;strokeColor=#3700CC;fillColor=#6a00ff;align=left;verticalAlign=middle;spacingLeft=4;spacingRight=4;overflow=hidden;points=[[0,0.5],[1,0.5]];portConstraint=eastwest;rotatable=0;fontColor=#ffffff;rounded=0;" parent="44" vertex="1">
                    <mxGeometry y="60" width="140" height="30" as="geometry"/>
                </mxCell>
                <mxCell id="50" style="edgeStyle=orthogonalEdgeStyle;html=1;exitX=1;exitY=0.5;exitDx=0;exitDy=0;entryX=0;entryY=0.5;entryDx=0;entryDy=0;endArrow=none;endFill=0;rounded=0;fillColor=#0050ef;strokeColor=#001DBC;curved=1;" parent="1" source="48" target="45" edge="1">
                    <mxGeometry relative="1" as="geometry"/>
                </mxCell>
                <mxCell id="48" value="est tagué par" style="ellipse;whiteSpace=wrap;html=1;fillColor=#60a917;fontColor=#ffffff;strokeColor=#2D7600;rounded=0;" parent="1" vertex="1">
                    <mxGeometry x="545" y="302.5" width="80" height="45" as="geometry"/>
                </mxCell>
                <mxCell id="49" style="edgeStyle=orthogonalEdgeStyle;html=1;exitX=1;exitY=0.5;exitDx=0;exitDy=0;entryX=0;entryY=0.5;entryDx=0;entryDy=0;endArrow=none;endFill=0;rounded=0;fillColor=#0050ef;strokeColor=#001DBC;curved=1;" parent="1" source="17" target="48" edge="1">
                    <mxGeometry relative="1" as="geometry"/>
                </mxCell>
                <mxCell id="51" value="0 : N" style="text;html=1;align=center;verticalAlign=middle;resizable=0;points=[];autosize=1;strokeColor=#001DBC;fillColor=#0050ef;rounded=0;" parent="1" vertex="1">
                    <mxGeometry x="500" y="280" width="40" height="20" as="geometry"/>
                </mxCell>
                <mxCell id="52" value="0 : N" style="text;html=1;align=center;verticalAlign=middle;resizable=0;points=[];autosize=1;strokeColor=#001DBC;fillColor=#0050ef;rounded=0;" parent="1" vertex="1">
                    <mxGeometry x="630" y="280" width="40" height="20" as="geometry"/>
                </mxCell>
                <mxCell id="53" value="proposition" style="swimlane;fontStyle=0;childLayout=stackLayout;horizontal=1;startSize=30;horizontalStack=0;resizeParent=1;resizeParentMax=0;resizeLast=0;collapsible=1;marginBottom=0;fillColor=#1ba1e2;fontColor=#ffffff;strokeColor=#006EAF;rounded=0;" parent="1" vertex="1">
                    <mxGeometry x="670" y="62.5" width="140" height="90" as="geometry"/>
                </mxCell>
                <mxCell id="54" value="code réponse" style="text;strokeColor=#3700CC;fillColor=#6a00ff;align=left;verticalAlign=middle;spacingLeft=4;spacingRight=4;overflow=hidden;points=[[0,0.5],[1,0.5]];portConstraint=eastwest;rotatable=0;fontStyle=4;fontColor=#ffffff;rounded=0;" parent="53" vertex="1">
                    <mxGeometry y="30" width="140" height="30" as="geometry"/>
                </mxCell>
                <mxCell id="55" value="description" style="text;strokeColor=#3700CC;fillColor=#6a00ff;align=left;verticalAlign=middle;spacingLeft=4;spacingRight=4;overflow=hidden;points=[[0,0.5],[1,0.5]];portConstraint=eastwest;rotatable=0;fontColor=#ffffff;rounded=0;" parent="53" vertex="1">
                    <mxGeometry y="60" width="140" height="30" as="geometry"/>
                </mxCell>
                <mxCell id="62" style="edgeStyle=orthogonalEdgeStyle;html=1;exitX=1;exitY=0.5;exitDx=0;exitDy=0;entryX=0;entryY=0.5;entryDx=0;entryDy=0;endArrow=none;endFill=0;rounded=0;fillColor=#0050ef;strokeColor=#001DBC;elbow=vertical;curved=1;" parent="1" source="58" edge="1">
                    <mxGeometry relative="1" as="geometry">
                        <mxPoint x="670" y="145" as="targetPoint"/>
                    </mxGeometry>
                </mxCell>
                <mxCell id="58" value="possède" style="ellipse;whiteSpace=wrap;html=1;fillColor=#60a917;fontColor=#ffffff;strokeColor=#2D7600;rounded=0;" parent="1" vertex="1">
                    <mxGeometry x="550" y="142" width="80" height="45" as="geometry"/>
                </mxCell>
                <mxCell id="61" style="edgeStyle=orthogonalEdgeStyle;html=1;exitX=1;exitY=0.5;exitDx=0;exitDy=0;entryX=0;entryY=0.5;entryDx=0;entryDy=0;endArrow=none;endFill=0;rounded=0;fillColor=#0050ef;strokeColor=#001DBC;curved=1;" parent="1" source="31" target="58" edge="1">
                    <mxGeometry relative="1" as="geometry"/>
                </mxCell>
                <mxCell id="63" value="0 : N" style="text;html=1;align=center;verticalAlign=middle;resizable=0;points=[];autosize=1;strokeColor=#001DBC;fillColor=#0050ef;rounded=0;" parent="1" vertex="1">
                    <mxGeometry x="500" y="115" width="40" height="20" as="geometry"/>
                </mxCell>
                <mxCell id="64" value="1 : 1" style="text;html=1;align=center;verticalAlign=middle;resizable=0;points=[];autosize=1;strokeColor=#001DBC;fillColor=#0050ef;rounded=0;" parent="1" vertex="1">
                    <mxGeometry x="630" y="115" width="40" height="20" as="geometry"/>
                </mxCell>
                <mxCell id="65" value="valide" style="ellipse;whiteSpace=wrap;html=1;fillColor=#60a917;fontColor=#ffffff;strokeColor=#2D7600;rounded=0;" parent="1" vertex="1">
                    <mxGeometry x="550" y="40" width="80" height="45" as="geometry"/>
                </mxCell>
                <mxCell id="66" style="edgeStyle=orthogonalEdgeStyle;html=1;exitX=1;exitY=0.5;exitDx=0;exitDy=0;entryX=0;entryY=0.5;entryDx=0;entryDy=0;endArrow=none;endFill=0;rounded=0;fillColor=#0050ef;strokeColor=#001DBC;curved=1;" parent="1" source="29" target="65" edge="1">
                    <mxGeometry relative="1" as="geometry"/>
                </mxCell>
                <mxCell id="67" style="edgeStyle=orthogonalEdgeStyle;html=1;exitX=0;exitY=0.25;exitDx=0;exitDy=0;entryX=1;entryY=0.5;entryDx=0;entryDy=0;endArrow=none;endFill=0;rounded=0;fillColor=#0050ef;strokeColor=#001DBC;curved=1;" parent="1" source="53" target="65" edge="1">
                    <mxGeometry relative="1" as="geometry"/>
                </mxCell>
                <mxCell id="68" value="1 : 1" style="text;html=1;align=center;verticalAlign=middle;resizable=0;points=[];autosize=1;strokeColor=#001DBC;fillColor=#0050ef;rounded=0;" parent="1" vertex="1">
                    <mxGeometry x="510" y="42.5" width="40" height="20" as="geometry"/>
                </mxCell>
                <mxCell id="69" value="0 : 1" style="text;html=1;align=center;verticalAlign=middle;resizable=0;points=[];autosize=1;strokeColor=#001DBC;fillColor=#0050ef;rounded=0;" parent="1" vertex="1">
                    <mxGeometry x="630" y="42.5" width="40" height="20" as="geometry"/>
                </mxCell>
            </root>
        </mxGraphModel>
    </diagram>
</mxfile>